<svg version="1" xmlns="http://www.w3.org/2000/svg" width="682.667" height="682.667" viewBox="0 0 512.000000 512.000000"><path d="M0 256v256h512V0H0v256zm271.5-89.9c33.9 4.2 53.3 18 59 42.1 3.3 14 .8 32.7-5.8 43.6-4.1 7-12.2 14.2-20.3 18.2-13 6.4-35.3 10-62 10H231v66h-25V169.3l7.3-1.2c16.7-2.9 43.5-3.8 58.2-2zM107 244.5V323h83v22H82V166h25v78.5zm285.6-10.4c20.5 2.8 31.4 12.7 31.4 28.4 0 9.3-3.7 16.3-11.1 21.2l-3.9 2.6 4.2 1.9c13 5.8 18.2 16.1 15.8 31-2.8 16.6-14 24.4-39.2 27-10.4 1.1-35.5 0-40.1-1.8-1.6-.6-1.7-4.5-1.7-54.5V236l2.5-.6c8.7-2.2 30.9-2.9 42.1-1.3z"/><path d="M233.8 187.7l-2.8.4v70.1l20.8-.5c32.8-.8 44-5.3 51-20.6 3.5-7.7 3.7-21.2.3-28.6-4.2-9.4-12.4-15.7-24.8-19.1-5.7-1.6-38.2-2.8-44.5-1.7zM364.3 246.6c-1 .4-1.3 4.9-1.3 17.6v17l15.3-.4c13.8-.3 15.6-.5 20.2-2.8 7.2-3.6 9.8-7.9 9.3-15.4-.4-5.5-.8-6.3-4.5-9.6-2.3-2-5.8-4.2-8-4.9-3.9-1.3-28.8-2.5-31-1.5zM363 313.5v19.4l3.7.7c6.9 1.3 27.4-.3 33.5-2.6 11.9-4.4 16.8-16.3 11.2-27.1-3.7-7.2-12.9-9.9-33.6-9.9H363v19.5z"/></svg>